<svg width="54" height="18" viewBox="0 0 54 18" fill="none" xmlns="http://www.w3.org/2000/svg">
<rect x="27" width="27" height="18" fill="#00B9B9"/>
<rect width="27" height="18" fill="#CF4CFE"/>
<path d="M11.724 10.04C11.5373 10.78 11.1773 11.31 10.644 11.63C10.1107 11.9433 9.48065 12.1 8.75398 12.1C8.06732 12.1 7.47732 11.9667 6.98398 11.7C6.49065 11.4267 6.11065 11.0367 5.84398 10.53C5.57732 10.0233 5.44398 9.41333 5.44398 8.7C5.44398 7.98667 5.57732 7.37667 5.84398 6.87C6.11065 6.36333 6.49065 5.97667 6.98398 5.71C7.47732 5.43667 8.06398 5.3 8.74398 5.3C9.21732 5.3 9.65732 5.36667 10.064 5.5C10.4707 5.63333 10.814 5.84333 11.094 6.13C11.374 6.41 11.564 6.77 11.664 7.21L9.89398 7.92C9.82065 7.5 9.69065 7.22 9.50398 7.08C9.32398 6.93333 9.09065 6.86 8.80398 6.86C8.39732 6.86 8.08398 7.01333 7.86398 7.32C7.65065 7.62 7.54398 8.08 7.54398 8.7C7.54398 9.31333 7.64732 9.77333 7.85398 10.08C8.06065 10.3867 8.39065 10.54 8.84398 10.54C9.11732 10.54 9.34732 10.46 9.53398 10.3C9.72065 10.14 9.84398 9.89 9.90398 9.55L11.724 10.04ZM14.5211 5.4V7.91H16.6611V5.4H18.7111V12H16.6611V9.44H14.5211V12H12.4811V5.4H14.5211ZM25.9523 5.4V9.23C25.9523 11.1433 24.9289 12.1 22.8823 12.1C20.8289 12.1 19.8023 11.1433 19.8023 9.23V5.4H21.8523V9.34C21.8523 10.14 22.1956 10.54 22.8823 10.54C23.5689 10.54 23.9123 10.14 23.9123 9.34V5.4H25.9523ZM33.2616 5.4V12H31.0216L29.2216 8.73L28.8016 7.84H28.7816L28.8216 9.14V12H27.0416V5.4H29.2716L31.0716 8.67L31.5016 9.56H31.5116L31.4716 8.26V5.4H33.2616ZM36.523 5.4V8.09L38.543 5.4H40.753L38.643 8.05L40.913 12H38.603L37.193 9.36L36.523 10.22V12H34.483V5.4H36.523ZM44.9236 5.4C45.7436 5.4 46.3769 5.59 46.8236 5.97C47.2769 6.34333 47.5036 6.84333 47.5036 7.47C47.5036 7.96333 47.3936 8.37333 47.1736 8.7C46.9603 9.02 46.6436 9.25667 46.2236 9.41L47.8836 12H45.6536L44.3736 9.71H43.5436V12H41.5436V5.4H44.9236ZM44.5936 8.32C44.8803 8.32 45.0936 8.26667 45.2336 8.16C45.3803 8.04667 45.4536 7.86333 45.4536 7.61C45.4536 7.35667 45.3803 7.17333 45.2336 7.06C45.0936 6.94667 44.8803 6.89 44.5936 6.89H43.5436V8.32H44.5936Z" fill="white"/>
</svg>
